<?xml version="1.0" standalone="no"?>
<!DOCTYPE svg PUBLIC "-//W3C//DTD SVG 20010904//EN"
 "http://www.w3.org/TR/2001/REC-SVG-20010904/DTD/svg10.dtd">
<svg version="1.0" xmlns="http://www.w3.org/2000/svg"
 width="650.000000pt" height="650.000000pt" viewBox="0 0 650.000000 650.000000"
 preserveAspectRatio="xMidYMid meet">
<metadata>
Created by potrace 1.14, written by Peter Selinger 2001-2017
</metadata>
<g transform="translate(0.000000,650.000000) scale(0.100000,-0.100000)"
fill="#000000" stroke="none">
<path d="M3200 6330 c0 -5 -13 -10 -29 -10 -21 0 -32 -6 -36 -20 -3 -11 -14
-20 -24 -20 -24 0 -62 -82 -68 -147 l-6 -53 -88 0 c-79 0 -88 2 -94 20 -3 11
-12 20 -20 20 -8 0 -17 9 -20 20 -3 11 -13 20 -21 20 -8 0 -14 5 -14 10 0 6
-13 10 -30 10 -16 0 -30 5 -30 10 0 6 -16 10 -35 10 -19 0 -35 5 -35 10 0 6
-25 10 -55 10 -30 0 -55 5 -55 10 0 6 -30 10 -70 10 -40 0 -70 -4 -70 -10 0
-6 -27 -10 -60 -10 -33 0 -60 -4 -60 -10 0 -5 -16 -10 -35 -10 -19 0 -35 -4
-35 -10 0 -5 -9 -10 -20 -10 -11 0 -20 -4 -20 -10 0 -5 -13 -10 -30 -10 -16 0
-30 -4 -30 -10 0 -5 -7 -10 -15 -10 -8 0 -15 -4 -15 -10 0 -5 -6 -10 -14 -10
-7 0 -27 -13 -44 -30 -26 -24 -40 -30 -77 -30 -25 0 -45 -4 -45 -10 0 -5 -15
-10 -33 -10 -21 0 -38 -7 -47 -20 -8 -11 -22 -20 -32 -20 -9 0 -20 -9 -23 -20
-3 -11 -15 -20 -25 -20 -10 0 -22 -9 -25 -20 -4 -12 -15 -20 -28 -20 -13 0
-29 9 -37 20 -8 12 -26 20 -42 20 -15 0 -28 5 -28 10 0 6 -7 10 -15 10 -8 0
-15 5 -15 10 0 6 -9 10 -20 10 -11 0 -20 5 -20 10 0 6 -37 10 -90 10 -53 0
-90 -4 -90 -10 0 -5 -17 -10 -38 -10 -26 0 -42 -6 -52 -20 -8 -12 -26 -20 -42
-20 -18 0 -29 -6 -33 -20 -4 -12 -22 -36 -40 -55 -42 -41 -100 -155 -109 -213
-8 -56 -25 -72 -75 -72 -23 0 -41 -4 -41 -10 0 -5 -11 -10 -25 -10 -14 0 -25
-4 -25 -10 0 -5 -11 -10 -24 -10 -14 0 -28 -4 -31 -10 -3 -5 -13 -10 -22 -10
-8 0 -28 -13 -43 -30 -15 -16 -33 -30 -39 -30 -6 0 -11 -4 -11 -8 0 -9 -25
-43 -55 -75 -37 -40 -60 -139 -56 -247 1 -35 5 -67 10 -70 4 -3 21 -30 37 -60
16 -30 32 -56 37 -58 11 -5 8 -82 -3 -82 -5 0 -10 -9 -10 -19 0 -11 -4 -21 -9
-23 -15 -5 -61 -106 -61 -133 0 -14 -4 -25 -10 -25 -6 0 -10 -33 -10 -80 0
-73 -2 -80 -20 -80 -11 0 -20 -4 -20 -10 0 -5 -13 -10 -30 -10 -16 0 -30 -4
-30 -10 0 -5 -6 -10 -13 -10 -7 0 -19 -9 -27 -20 -8 -11 -22 -20 -32 -20 -9 0
-20 -9 -23 -20 -3 -11 -13 -20 -21 -20 -8 0 -14 -9 -14 -20 0 -11 -4 -20 -9
-20 -5 0 -14 -13 -21 -30 -7 -16 -16 -30 -20 -30 -13 0 -28 -112 -22 -177 2
-35 8 -63 12 -63 4 0 10 -12 13 -28 3 -15 15 -38 26 -52 11 -14 31 -37 43 -52
13 -15 29 -28 36 -28 6 0 12 -4 12 -10 0 -5 7 -10 15 -10 8 0 15 -4 15 -10 0
-5 14 -10 30 -10 17 0 30 -4 30 -8 0 -5 37 -13 83 -18 l82 -9 3 -32 3 -33
-110 0 c-67 0 -111 -4 -111 -10 0 -5 -9 -10 -19 -10 -11 0 -23 -5 -26 -10 -3
-5 -19 -10 -36 -10 -16 0 -29 -4 -29 -10 0 -5 -9 -10 -20 -10 -11 0 -20 -4
-20 -9 0 -5 -19 -28 -42 -52 -47 -48 -65 -86 -79 -164 -11 -60 -1 -192 16
-208 6 -7 15 -25 19 -40 3 -15 13 -27 21 -27 7 0 16 -8 20 -19 3 -10 14 -29
25 -41 23 -26 26 -60 7 -60 -7 0 -19 -9 -27 -21 -8 -12 -28 -35 -43 -52 -16
-17 -31 -43 -34 -59 -3 -15 -11 -28 -18 -28 -6 0 -18 -12 -26 -27 -8 -16 -17
-30 -20 -33 -3 -3 -14 -32 -25 -65 -39 -121 -19 -390 33 -443 7 -7 13 -22 13
-33 0 -10 6 -19 13 -19 8 0 24 -23 37 -50 13 -28 29 -50 36 -50 7 0 16 -9 19
-20 3 -11 15 -20 26 -20 11 0 19 -7 19 -16 0 -20 24 -44 45 -44 22 0 43 -22
51 -54 4 -17 2 -26 -6 -26 -14 0 -34 -19 -43 -42 -3 -10 -13 -18 -22 -18 -8 0
-15 -9 -15 -19 0 -11 -6 -26 -14 -33 -45 -45 -71 -164 -61 -275 4 -40 11 -73
16 -73 5 0 9 -9 9 -19 0 -11 7 -26 15 -35 8 -8 15 -19 15 -25 0 -19 34 -81 44
-81 6 0 22 -14 35 -30 13 -17 31 -30 41 -30 10 0 22 -9 25 -20 4 -14 15 -20
35 -20 20 0 31 -6 35 -20 4 -14 15 -20 36 -20 47 0 55 -16 56 -112 0 -48 5
-99 11 -115 6 -15 16 -47 22 -70 6 -24 17 -43 24 -43 8 0 19 -13 26 -30 14
-34 43 -70 56 -70 5 0 16 -9 24 -20 8 -11 24 -20 35 -20 11 0 27 -9 35 -20 8
-11 25 -20 37 -20 13 0 23 -4 23 -10 0 -5 20 -10 45 -10 25 0 45 -4 45 -10 0
-5 15 -10 34 -10 27 0 36 -5 41 -22 16 -61 60 -138 77 -138 11 0 18 -7 18 -20
0 -11 4 -20 9 -20 5 0 13 -9 16 -20 3 -11 13 -20 21 -20 8 0 14 -4 14 -10 0
-5 6 -10 14 -10 8 0 18 -9 21 -20 4 -14 15 -20 36 -20 16 0 29 -4 29 -10 0 -5
14 -10 30 -10 17 0 30 -4 30 -10 0 -5 14 -10 30 -10 17 0 30 -4 30 -10 0 -5
18 -10 40 -10 22 0 40 5 40 10 0 6 9 10 20 10 11 0 20 5 20 10 0 6 13 10 29
10 17 0 33 4 36 10 3 5 16 10 28 10 13 0 29 9 37 20 8 11 21 20 30 20 9 0 22
9 30 20 15 21 50 28 50 10 0 -5 9 -10 20 -10 11 0 20 -4 20 -8 0 -16 37 -52
54 -52 9 0 16 -4 16 -10 0 -5 11 -10 24 -10 16 0 27 -7 31 -20 4 -14 15 -20
36 -20 16 0 29 -4 29 -10 0 -5 18 -10 40 -10 22 0 40 -4 40 -10 0 -6 48 -10
125 -10 77 0 125 4 125 10 0 6 7 10 15 10 8 0 15 5 15 10 0 6 16 10 35 10 19
0 35 5 35 10 0 6 14 10 30 10 34 0 35 -4 21 -125 -4 -38 -6 -76 -3 -82 3 -10
174 -13 809 -13 696 0 806 2 819 15 11 11 12 19 4 34 -14 27 -13 174 2 206 11
24 48 36 48 15 0 -5 11 -10 25 -10 14 0 25 -4 25 -10 0 -5 14 -10 30 -10 17 0
30 -4 30 -10 0 -5 6 -10 14 -10 8 0 17 -6 19 -12 4 -10 6 -10 6 0 1 14 61 17
61 2 0 -6 33 -10 80 -10 47 0 80 4 80 10 0 6 9 10 20 10 11 0 20 5 20 10 0 6
18 10 40 10 22 0 40 5 40 10 0 6 9 10 19 10 11 0 23 9 26 20 3 11 14 20 23 20
10 0 24 9 32 20 15 20 60 28 60 10 0 -5 6 -10 13 -10 7 0 19 -9 27 -20 8 -11
22 -20 32 -20 10 0 18 -4 18 -10 0 -5 9 -10 20 -10 11 0 20 -4 20 -10 0 -5 18
-10 40 -10 22 0 40 -4 40 -10 0 -5 11 -10 25 -10 14 0 25 -4 25 -10 0 -6 32
-10 75 -10 43 0 75 4 75 10 0 6 9 10 20 10 11 0 20 5 20 10 0 6 18 10 40 10
22 0 40 5 40 10 0 6 9 10 20 10 11 0 20 5 20 10 0 6 9 10 19 10 11 0 23 9 26
20 4 11 15 20 27 20 19 0 58 34 58 50 0 6 12 22 50 67 5 7 10 19 10 28 0 8 4
15 9 15 5 0 11 18 15 40 6 39 7 40 46 40 22 0 40 5 40 10 0 6 22 10 48 10 36
0 51 5 62 20 8 11 26 20 40 20 15 0 32 9 40 22 8 11 23 28 33 37 9 8 17 21 17
28 0 7 9 13 19 13 11 0 23 9 26 20 3 11 11 20 16 20 5 0 9 9 9 19 0 11 6 26
13 33 29 29 38 62 42 156 4 95 -17 212 -37 212 -4 0 -8 14 -8 30 0 28 3 30 35
30 19 0 35 5 35 10 0 6 14 10 30 10 17 0 30 5 30 10 0 6 10 10 23 10 12 0 29
9 37 20 8 11 20 20 27 20 7 0 13 9 13 20 0 11 7 20 15 20 8 0 15 9 15 19 0 11
6 26 13 33 27 26 39 110 27 178 -12 64 -38 130 -52 130 -13 0 -9 30 6 46 8 8
20 14 26 14 28 0 120 123 120 160 0 6 6 17 13 24 9 9 14 53 16 142 2 119 1
131 -18 153 -12 13 -21 30 -21 38 0 16 -24 43 -37 43 -5 0 -15 9 -23 20 -8 11
-20 20 -27 20 -16 0 -27 43 -19 75 4 17 13 25 29 25 12 0 29 9 37 20 8 11 20
20 27 20 7 0 13 9 13 20 0 11 6 20 13 20 14 0 37 40 37 65 0 8 3 15 8 15 12 0
32 76 32 120 0 42 -20 120 -31 120 -4 0 -12 13 -19 30 -7 17 -19 30 -26 30 -8
0 -14 9 -14 20 0 11 -6 20 -13 20 -7 0 -19 9 -27 20 -8 11 -23 20 -33 20 -10
0 -25 6 -33 14 -24 24 -15 86 13 86 33 0 93 87 93 135 0 16 6 25 16 25 12 0
14 5 9 18 -4 9 -12 39 -17 67 -5 27 -17 62 -25 79 -18 34 -58 76 -73 76 -5 0
-10 5 -10 10 0 6 -7 10 -15 10 -8 0 -15 5 -15 10 0 6 -53 10 -140 10 l-140 0
0 24 c0 54 5 56 114 56 90 0 103 2 116 20 8 11 22 20 32 20 10 0 18 5 18 10 0
6 7 10 15 10 8 0 15 4 15 9 0 5 14 24 30 42 58 66 70 87 70 126 0 16 5 34 12
41 15 15 16 112 2 143 -7 13 -18 44 -25 69 -8 25 -27 59 -44 76 -16 17 -37 41
-45 53 -8 11 -22 21 -32 21 -10 0 -18 5 -18 10 0 6 -9 10 -20 10 -11 0 -20 5
-20 10 0 6 -12 10 -26 10 -48 0 -58 22 -64 150 -4 93 -9 120 -22 134 -10 10
-18 24 -18 32 0 15 -9 28 -41 62 -9 9 -20 27 -23 40 -4 13 -15 22 -27 22 -13
0 -19 7 -19 24 0 35 10 56 26 56 8 0 14 9 14 20 0 11 4 20 8 20 29 0 53 288
24 298 -7 2 -12 15 -12 28 0 14 -10 36 -22 49 -32 33 -58 68 -58 77 0 4 -7 8
-15 8 -8 0 -15 9 -15 20 0 13 -7 20 -20 20 -11 0 -20 5 -20 10 0 6 -7 10 -15
10 -8 0 -15 5 -15 10 0 6 -9 10 -20 10 -11 0 -20 5 -20 10 0 6 -18 10 -40 10
-22 0 -40 5 -40 10 0 6 -18 10 -39 10 -41 0 -51 11 -51 55 0 13 -7 30 -15 38
-8 8 -21 33 -28 55 -8 22 -20 46 -27 55 -7 8 -24 28 -39 45 -14 16 -33 39 -41
51 -8 12 -20 21 -27 21 -7 0 -13 5 -13 10 0 6 -9 10 -20 10 -11 0 -20 5 -20
10 0 6 -6 10 -13 10 -7 0 -19 9 -27 20 -8 11 -25 20 -37 20 -13 0 -23 5 -23
10 0 6 -18 10 -40 10 -22 0 -40 5 -40 10 0 6 -47 10 -120 10 -73 0 -120 -4
-120 -10 0 -5 -18 -10 -40 -10 -22 0 -40 -4 -40 -10 0 -5 -25 -10 -55 -10 -30
0 -55 5 -55 10 0 6 -9 10 -20 10 -11 0 -20 5 -20 10 0 6 -27 10 -60 10 -33 0
-60 -4 -60 -10 0 -5 -11 -10 -25 -10 -14 0 -25 5 -25 10 0 6 -9 10 -19 10 -11
0 -23 9 -26 20 -3 11 -13 20 -21 20 -8 0 -14 5 -14 10 0 6 -7 10 -15 10 -8 0
-15 5 -15 10 0 6 -10 10 -23 10 -12 0 -29 9 -37 20 -8 12 -26 20 -42 20 -15 0
-28 5 -28 10 0 6 -7 10 -15 10 -8 0 -15 5 -15 10 0 6 -13 10 -30 10 -16 0 -30
5 -30 10 0 6 -22 10 -50 10 -27 0 -50 5 -50 10 0 6 -71 10 -194 10 -186 0
-195 1 -201 20 -3 11 -12 20 -20 20 -8 0 -17 9 -20 20 -5 16 -15 20 -51 20
-24 0 -44 5 -44 10 0 6 -75 10 -205 10 -130 0 -205 -4 -205 -10z m228 -166
c88 -7 92 -8 92 -30 0 -26 13 -24 -174 -28 -30 -1 -51 -6 -53 -13 -4 -10 23
-13 111 -13 95 0 116 -3 116 -15 0 -12 -21 -15 -110 -17 -148 -4 -149 -22 -2
-26 101 -2 113 -5 110 -20 -3 -15 -19 -17 -116 -20 -61 -1 -112 -7 -112 -11 0
-5 53 -12 118 -16 l118 -7 -4 -28 -4 -27 -146 -6 c-80 -3 -149 -4 -154 -1 -10
6 -11 268 -1 277 8 9 94 9 211 1z m160 -11 c-10 -2 -28 -2 -40 0 -13 2 -5 4
17 4 22 1 32 -1 23 -4z m440 -109 c30 -8 25 -36 -8 -45 -14 -4 -62 -7 -107 -8
-63 -1 -83 -4 -83 -15 0 -10 27 -15 110 -21 61 -3 110 -11 110 -16 0 -5 -49
-9 -110 -9 -91 0 -110 -3 -110 -15 0 -12 16 -15 78 -16 61 -1 70 -3 43 -9 -18
-4 -36 -12 -40 -18 -3 -5 -41 -10 -83 -11 l-78 -2 0 95 0 96 128 0 c70 0 137
-3 150 -6z m-1388 -39 l0 -35 -70 0 c-55 0 -70 -3 -70 -15 0 -11 17 -15 72
-17 60 -2 73 -6 76 -20 2 -13 -3 -18 -17 -18 -12 0 -21 5 -21 10 0 19 -65 11
-78 -10 -12 -19 -10 -20 48 -20 33 0 60 -4 60 -10 0 -5 7 -10 15 -10 8 0 15
-7 15 -15 0 -8 9 -15 20 -15 11 0 20 -7 20 -15 0 -9 -9 -15 -25 -15 -16 0 -25
6 -25 15 0 8 -7 15 -15 15 -8 0 -15 5 -15 10 0 6 -7 10 -16 10 -10 0 -14 -6
-11 -14 5 -11 -15 -16 -96 -21 -56 -4 -115 -5 -132 -3 l-30 3 -3 113 -3 112
151 0 150 0 0 -35z m-496 -81 c14 -13 16 -50 16 -250 l0 -234 -42 0 -43 0 2
237 c1 215 3 238 19 250 23 17 29 16 48 -3z m914 -34 c29 0 33 -3 30 -22 -3
-22 -10 -24 -103 -31 -55 -4 -105 -5 -112 -2 -7 2 -13 19 -13 36 l0 32 83 -6
c45 -4 97 -7 115 -7z m-1136 -17 c35 -32 13 -93 -34 -93 -49 0 -74 56 -41 92
20 22 51 23 75 1z m2554 -28 c4 -15 -77 -76 -95 -73 -24 5 -25 44 -1 68 15 15
31 20 57 18 20 -2 38 -7 39 -13z m259 5 c9 -15 -64 -82 -84 -78 -23 4 -26 46
-5 69 18 21 78 26 89 9z m-3290 -11 c50 -14 89 -47 75 -64 -10 -12 -96 -5
-119 9 -24 15 -131 -61 -131 -93 0 -11 -30 -19 -47 -14 -19 7 -16 32 12 78 46
79 120 108 210 84z m3640 -10 c22 -18 26 -27 21 -52 -7 -36 -21 -47 -59 -47
-56 0 -88 74 -45 104 30 21 50 20 83 -5z m254 -5 c12 -15 21 -33 21 -40 0 -19
-36 -54 -55 -54 -23 0 -55 37 -55 64 0 29 24 56 50 56 10 0 28 -12 39 -26z
m-1825 -47 c13 -48 14 -47 -149 -47 l-155 0 0 33 c0 19 2 36 4 38 2 2 69 3
149 1 140 -3 145 -4 151 -25z m83 2 c-1 -18 -3 -18 -13 -5 -14 20 -25 21 -18
2 3 -7 -2 -16 -12 -20 -12 -4 -15 -2 -10 9 3 8 0 15 -7 15 -22 0 17 20 40 20
16 0 21 -6 20 -21z m-517 -354 l0 -365 -110 0 -110 0 0 365 0 365 110 0 110 0
0 -365z m980 300 l0 -45 -54 0 c-29 0 -81 -3 -115 -6 l-61 -7 0 -303 0 -304
-40 0 -40 0 0 355 0 355 155 0 155 0 0 -45z m-462 -197 c-1 -203 -2 -212 -8
-103 -4 66 -8 131 -9 145 -1 19 -3 22 -10 11 -7 -11 -12 -3 -21 28 -14 52 -18
121 -8 115 5 -3 11 2 14 10 3 9 15 16 25 16 18 0 19 -10 17 -222z m-924 206
c43 -6 46 -9 46 -35 0 -28 -2 -29 -45 -29 l-45 0 0 -400 0 -400 -145 0 -145 0
0 435 0 435 144 0 c79 0 164 -3 190 -6z m844 -376 l-3 -301 -150 -1 -150 -1
-3 290 c-1 159 0 295 3 302 3 10 42 13 155 12 l150 -1 -2 -300z m-1590 270
c15 -13 16 -70 0 -86 -33 -33 -98 0 -98 49 0 49 56 70 98 37z m2553 -28 c21
-17 22 -19 6 -20 -11 0 -37 -16 -60 -35 -23 -20 -46 -34 -51 -32 -6 2 -12 20
-14 39 -2 28 2 40 20 52 30 22 71 20 99 -4z m250 10 c28 -15 23 -32 -16 -57
-50 -32 -79 -33 -83 -5 -4 26 13 50 43 62 27 12 33 12 56 0z m386 -12 c28 -26
30 -62 4 -80 -10 -7 -20 -17 -22 -23 -2 -5 -10 -9 -16 -9 -7 1 -10 -2 -7 -7 3
-5 -6 -9 -20 -9 -33 0 -86 46 -86 75 0 32 53 75 93 75 18 0 40 -9 54 -22z
m278 -3 c33 -32 31 -60 -4 -96 -45 -45 -100 -37 -129 18 -18 32 -15 51 13 78
16 17 35 25 60 25 25 0 44 -8 60 -25z m-4417 -221 c101 -42 145 -142 108 -246
-11 -31 -11 -40 -1 -48 14 -12 31 -107 21 -118 -4 -3 -26 13 -49 36 -41 41
-43 41 -82 31 -118 -33 -235 56 -235 179 0 77 34 130 105 163 49 23 84 24 133
3z m4801 -24 c58 -29 85 -79 78 -145 -9 -91 -55 -135 -139 -135 -62 0 -109 28
-135 80 -28 54 -29 105 -3 148 42 69 125 90 199 52z m-3619 -218 l-1 -219 -49
1 c-43 1 -47 -1 -39 -16 5 -9 6 -19 2 -21 -5 -3 -142 -8 -305 -11 -278 -6
-299 -5 -315 12 -30 30 -103 119 -103 126 0 3 164 6 365 6 l365 0 0 63 0 63
-65 -4 -65 -4 0 33 c0 47 -12 61 -46 57 -26 -3 -29 -7 -32 -46 -3 -39 -5 -41
-24 -31 -12 7 -18 7 -14 1 4 -6 -2 -8 -14 -5 -16 4 -20 14 -20 44 0 38 -1 39
-34 39 -34 0 -35 -1 -38 -42 -3 -40 -5 -43 -35 -46 -33 -3 -33 -3 -33 43 l0
46 -37 -3 c-37 -3 -38 -4 -41 -46 l-3 -42 -150 2 -149 2 0 83 0 83 398 2 397
3 3 23 c3 19 10 22 43 22 l40 0 -1 -218z m3086 153 c4 -9 3 -40 -1 -70 l-6
-55 -455 0 -454 0 0 70 0 70 455 0 c398 0 456 -2 461 -15z m178 -1 c3 -9 6
-35 6 -58 0 -42 0 -43 -45 -53 l-45 -10 0 62 c0 34 3 65 7 68 13 14 71 7 77
-9z m-174 -321 c0 -16 -3 -45 -6 -65 l-7 -38 -453 0 -454 0 0 65 0 65 460 0
460 0 0 -27z m204 1 c38 -38 -1 -112 -52 -99 -50 12 -68 61 -35 97 20 22 66
24 87 2z m-2448 0 l59 -6 -3 -38 c-4 -35 -7 -38 -40 -44 -21 -3 -65 -6 -99 -6
l-63 0 0 43 c0 24 3 47 7 50 8 9 62 9 139 1z m456 -4 l58 0 0 -39 0 -39 -122
-7 c-172 -10 -182 -8 -186 33 -6 63 -2 66 100 58 50 -3 117 -6 150 -6z m368
-70 c0 -59 -3 -78 -12 -76 -7 3 -25 7 -40 10 -27 6 -28 8 -28 76 l0 70 40 0
40 0 0 -80z m-1673 -3 c0 -9 -9 -12 -26 -8 l-26 5 25 7 c14 4 25 7 26 8 0 1 1
-5 1 -12z m-957 -73 l50 -7 0 -127 c0 -70 -3 -155 -6 -189 l-7 -61 -243 0
-243 0 -3 181 c-2 100 -1 185 2 189 3 4 14 10 25 12 33 8 371 9 425 2z m4605
-16 c31 -16 75 -60 92 -92 23 -45 20 -127 -8 -177 -34 -61 -68 -82 -139 -87
-32 -2 -71 -2 -84 2 -36 9 -96 65 -112 103 -41 97 14 223 111 258 41 15 102
12 140 -7z m-3207 -18 c38 0 42 -2 42 -25 0 -22 -4 -25 -34 -25 -34 0 -60 -16
-68 -42 -3 -9 -35 -14 -101 -16 l-97 -4 0 55 0 56 43 4 c23 3 71 3 107 1 36
-2 84 -4 108 -4z m430 4 l52 -7 0 -48 0 -49 -42 0 c-24 0 -73 -3 -110 -7 l-68
-6 0 55 c0 30 3 58 7 61 8 9 92 9 161 1z m413 -4 l87 0 -8 -37 c-5 -20 -8 -41
-7 -47 3 -14 -91 -25 -203 -23 l-95 2 -3 44 c-5 71 -1 75 76 67 37 -3 106 -6
153 -6z m-1411 -90 c-9 -6 -10 -10 -3 -10 6 0 15 4 18 10 8 13 85 10 85 -4 0
-6 -24 -12 -57 -13 -38 -2 -60 -8 -65 -18 -5 -8 -14 -12 -22 -9 -7 3 -19 -3
-27 -12 -12 -15 -12 -17 0 -9 10 5 12 4 7 -3 -4 -7 -18 -12 -31 -12 -13 0 -27
-5 -31 -11 -9 -15 -26 14 -19 33 12 28 78 65 119 66 30 1 37 -1 26 -8z m-390
-42 c0 -73 8 -88 46 -88 40 0 84 -19 84 -36 0 -24 -42 -44 -77 -38 -29 5 -34
3 -43 -21 -5 -14 -10 -46 -10 -71 0 -44 0 -44 -35 -44 l-35 0 0 65 0 65 -43 0
c-44 0 -87 22 -87 44 0 18 44 36 90 36 l40 0 0 65 0 65 35 0 c34 0 35 -1 35
-42z m3157 16 c21 -33 7 -59 -32 -59 -37 0 -53 25 -37 59 15 34 47 34 69 0z
m496 0 c51 -25 80 -69 84 -128 7 -95 -46 -154 -142 -155 -92 -2 -147 57 -148
160 -1 53 18 84 71 116 43 27 91 29 135 7z m-823 -9 c0 -8 -7 -15 -15 -15 -8
0 -15 7 -15 15 0 8 7 15 15 15 8 0 15 -7 15 -15z m325 -139 c13 -19 14 -29 5
-45 -20 -39 -80 -21 -80 24 0 47 49 60 75 21z m-392 -10 c31 -13 68 -40 89
-65 43 -51 102 -158 90 -165 -5 -3 -30 15 -56 40 -26 24 -49 44 -51 44 -1 0 5
-19 14 -42 14 -39 16 -167 19 -1329 l2 -1286 -28 -54 c-17 -33 -44 -65 -70
-84 -41 -28 -48 -30 -190 -36 -81 -4 -574 -8 -1097 -8 l-950 -1 -62 29 c-58
28 -72 41 -131 127 -10 16 -12 7 -9 -55 l3 -73 -28 31 c-61 68 -58 12 -56
1421 l3 1285 26 56 c40 84 119 152 209 180 14 4 519 8 1122 8 l1097 1 54 -24z
m-3782 -219 c74 -50 80 -150 13 -212 -22 -20 -37 -25 -80 -25 -45 0 -59 5 -87
29 -46 41 -64 99 -46 143 7 18 26 45 42 61 38 36 108 38 158 4z m5525 -16 c44
-20 80 -68 90 -120 8 -41 -18 -109 -55 -145 -73 -70 -209 -46 -256 44 -26 51
-16 150 19 185 55 55 130 69 202 36z m-4927 -397 l-1 -244 -29 -16 c-16 -8
-35 -12 -41 -8 -6 4 -8 3 -5 -3 3 -5 -49 -39 -116 -75 l-122 -65 -3 325 c-1
179 0 327 2 329 2 2 20 -3 40 -11 l36 -15 0 75 0 75 120 -62 121 -61 -2 -244z
m329 -2 c2 -196 6 -360 8 -364 5 -8 -7 -3 -158 70 l-108 52 0 240 0 240 118
59 c64 33 122 60 127 60 6 1 11 -127 13 -357z m4060 231 l-3 -78 -432 -3 -433
-2 0 80 0 80 435 0 436 0 -3 -77z m172 43 c0 -18 -3 -54 -6 -80 -6 -42 -9 -46
-34 -46 -31 0 -40 24 -40 111 l0 49 40 0 c39 0 40 -1 40 -34z m-4910 -419 l0
-304 -25 -11 c-14 -7 -28 -12 -30 -12 -3 0 -5 142 -5 315 l0 315 30 0 30 0 0
-303z m4393 137 c35 -6 37 -8 37 -45 l0 -39 -280 0 -280 0 0 39 c0 36 3 40 28
44 45 7 454 7 495 1z m551 0 c11 -4 16 -19 16 -45 l0 -39 -140 0 -140 0 0 45
0 45 124 0 c68 0 131 -3 140 -6z m-354 -43 c0 -32 -4 -40 -22 -45 -44 -11 -48
-8 -48 39 0 45 0 45 35 45 34 0 35 -1 35 -39z m-4926 -286 c41 -17 46 -24 14
-18 -33 6 -107 -30 -147 -71 -58 -60 -93 -38 -56 34 35 67 108 88 189 55z
m5656 -35 c26 -26 25 -46 -3 -65 -24 -15 -87 -18 -124 -4 -30 11 -39 46 -17
70 25 27 116 27 144 -1z m-4824 -141 c83 -40 101 -53 92 -63 -10 -10 -25 -8
-77 10 -36 13 -67 21 -69 19 -2 -2 23 -18 57 -34 34 -17 61 -36 61 -41 0 -6
-82 -10 -220 -10 l-220 0 0 25 c0 22 14 31 113 78 118 57 136 65 151 66 5 1
55 -22 112 -50z m3894 -164 l0 -135 -40 0 -40 0 0 105 0 105 -35 0 -35 0 0
-105 0 -105 -40 0 -40 0 0 105 0 105 -35 0 -35 0 0 -105 0 -105 -40 0 -39 0
-3 103 -3 102 -32 3 -33 3 0 -105 0 -106 -40 0 -40 0 0 128 c0 71 3 132 7 135
3 4 123 7 265 7 l258 0 0 -135z m570 129 c0 -3 -16 -24 -35 -47 -34 -40 -35
-42 -35 -129 l0 -88 -205 0 -205 0 0 135 0 135 240 0 c132 0 240 -3 240 -6z
m-19 -67 c-10 -9 -11 -8 -5 6 3 10 9 15 12 12 3 -3 0 -11 -7 -18z m-4615 -121
c8 -8 14 -33 14 -55 l0 -41 -225 0 -225 0 0 55 0 55 211 0 c169 0 213 -3 225
-14z m514 -56 l0 -70 -35 0 c-33 0 -35 2 -35 35 l0 35 -50 0 -50 0 0 -35 c0
-32 -2 -35 -29 -35 -27 0 -30 3 -33 38 -3 37 -3 37 -48 37 -45 0 -45 0 -48
-37 -2 -24 -8 -38 -18 -39 -51 -5 -49 -7 -52 63 l-3 67 143 4 c79 1 169 4 201
5 l57 2 0 -70z m4107 -12 c-3 -8 -6 -5 -6 6 -1 11 2 17 5 13 3 -3 4 -12 1 -19z
m386 -62 c120 -51 111 -210 -14 -244 -99 -27 -194 79 -158 175 27 70 101 100
172 69z m-5573 -92 c36 -8 45 -23 36 -59 l-7 -26 -146 3 c-134 3 -147 5 -159
23 -12 18 -11 24 2 43 14 20 23 22 128 22 63 0 128 -3 146 -6z m5198 -3 c2 -1
1 -5 -2 -10 -3 -5 -7 -30 -8 -55 0 -26 -5 -42 -9 -35 -4 6 -6 23 -4 38 l3 25
-24 -27 c-45 -52 -26 -138 20 -92 20 20 24 10 18 -47 l-4 -48 -539 0 -539 0 0
124 c0 121 1 125 23 130 16 3 1045 0 1065 -3z m-4838 -120 c15 -29 14 -553 -2
-569 -20 -20 -65 -14 -82 10 -14 19 -16 64 -16 288 0 194 3 269 12 278 20 20
76 15 88 -7z m699 -9 c18 -35 0 -40 -164 -46 -88 -3 -193 -7 -233 -10 -70 -4
-72 -4 -78 20 -14 54 -14 54 235 54 212 0 231 -1 240 -18z m-1 -183 c3 -25 1
-26 -53 -28 -30 -1 -81 -5 -113 -8 -31 -3 -112 -8 -180 -10 -133 -4 -141 -1
-128 52 l6 25 233 -2 232 -3 3 -26z m-1233 -4 c29 -28 31 -42 9 -73 -29 -42
-104 -18 -104 35 0 26 32 63 55 63 9 0 27 -11 40 -25z m228 14 c41 -22 49 -59
20 -91 -23 -26 -58 -22 -82 8 -21 26 -19 46 7 77 18 20 26 21 55 6z m1005
-196 l3 -32 -226 -3 c-125 -2 -233 1 -241 5 -14 8 -19 48 -7 61 4 3 110 5 237
4 l231 -3 3 -32z m4481 -18 c47 -24 83 -79 89 -135 9 -97 -59 -178 -158 -188
-201 -19 -264 264 -73 334 43 16 99 12 142 -11z m-1379 -61 l0 -55 -32 3 c-30
3 -33 6 -36 42 -5 53 3 66 38 66 30 0 30 0 30 -56z m155 1 c0 -46 -2 -50 -25
-54 -14 -1 -28 -8 -32 -15 -4 -6 -8 20 -8 57 l0 68 33 -3 c31 -3 32 -4 32 -53z
m153 6 c4 -60 -1 -69 -37 -63 -30 4 -31 6 -31 51 0 55 5 63 40 59 22 -3 25 -8
28 -47z m152 -7 l0 -55 -32 3 c-30 3 -33 6 -36 42 -5 53 3 66 38 66 30 0 30 0
30 -56z m518 4 l3 -48 -209 0 -210 0 -4 46 c-2 25 -1 47 1 50 3 2 97 3 210 2
l206 -3 3 -47z m-5316 -10 c27 -22 28 -56 4 -85 -24 -27 -51 -26 -81 3 -18 18
-20 65 -3 82 16 16 60 15 80 0z m248 -8 c24 -24 25 -48 4 -78 -18 -27 -45 -28
-72 -4 -32 27 -36 58 -13 81 26 26 55 27 81 1z m990 -79 l0 -29 -87 -4 c-49
-3 -155 -4 -238 -4 -136 1 -150 3 -153 19 -9 47 -7 47 243 47 l235 0 0 -29z
m10 -269 l0 -59 -217 -6 c-276 -9 -584 -9 -690 0 -70 5 -83 9 -83 23 0 19 -27
30 -72 30 -27 0 -51 19 -26 21 7 0 33 11 58 24 l45 23 493 1 492 1 0 -58z
m3628 23 c7 -14 12 -32 12 -40 0 -8 8 -30 17 -50 12 -25 14 -38 6 -43 -6 -4
-13 -72 -17 -177 -5 -144 -8 -172 -23 -182 -22 -17 -28 -16 -47 3 -13 13 -16
46 -16 203 0 163 3 195 21 249 11 34 24 62 28 62 4 0 13 -11 19 -25z m452 -17
c0 -9 11 -34 25 -54 30 -44 32 -64 5 -64 -19 0 -20 -8 -22 -172 l-3 -172 -33
-7 c-43 -9 -44 -5 -39 216 2 141 7 190 20 225 10 25 20 52 23 60 4 13 6 13 14
0 6 -8 10 -23 10 -32z m-217 -18 c3 -14 11 -38 18 -53 15 -33 3 -47 -43 -47
-15 0 -30 -5 -34 -12 -5 -7 -10 -4 -15 10 -7 19 16 110 37 143 9 15 32 -9 37
-41z m-469 -15 c13 -13 27 -37 31 -54 6 -29 6 -29 -45 -32 -29 -2 -54 0 -57 5
-5 7 37 105 44 106 1 0 13 -11 27 -25z m-4456 -174 c46 -24 92 -94 92 -141 0
-36 -23 -96 -48 -123 -49 -55 -145 -65 -216 -23 -33 19 -48 37 -65 75 -24 57
-25 70 -9 122 30 101 143 142 246 90z m302 -106 l0 -55 -35 0 -35 0 0 55 0 55
35 0 35 0 0 -55z m760 30 l0 -25 -197 0 c-190 0 -409 -7 -445 -15 -14 -2 -18
4 -18 31 l0 34 330 0 330 0 0 -25z m4360 -5 c26 -26 25 -51 -1 -84 -17 -22
-27 -26 -48 -21 -39 10 -51 24 -51 61 0 56 61 83 100 44z m-1570 -185 c0 -9
-40 -45 -50 -45 -5 0 -10 7 -10 15 0 8 7 15 15 15 8 0 15 5 15 10 0 6 7 10 15
10 8 0 15 -2 15 -5z m-2566 -124 c61 -61 77 -83 74 -102 -1 -13 -8 -24 -14
-24 -6 0 -42 28 -80 62 -38 34 -80 70 -93 81 -20 16 -22 21 -12 40 6 12 20 22
29 22 10 0 53 -35 96 -79z m2786 64 c6 -8 10 -18 8 -23 -7 -19 -179 -172 -193
-172 -10 0 -15 10 -15 28 -1 21 17 43 82 104 46 43 88 78 94 78 6 0 17 -7 24
-15z m-2520 -10 c0 -8 -7 -15 -15 -15 -8 0 -15 7 -15 15 0 8 7 15 15 15 8 0
15 -7 15 -15z m2170 0 c0 -8 -7 -15 -15 -15 -8 0 -15 7 -15 15 0 8 7 15 15 15
8 0 15 -7 15 -15z m-3344 -140 c36 -23 19 -37 -47 -37 -29 1 -68 -6 -86 -15
-32 -15 -85 -73 -95 -102 -2 -8 -12 -15 -21 -17 -12 -2 -17 5 -17 22 0 59 61
139 125 163 40 14 108 8 141 -14z m553 -12 c190 -118 55 -409 -157 -339 -85
29 -132 97 -132 191 1 150 156 230 289 148z m3438 11 c13 -8 30 -25 39 -39 14
-22 14 -29 1 -67 -8 -24 -19 -42 -24 -41 -6 1 -21 -9 -33 -22 -34 -36 -81 -34
-114 6 -14 17 -26 39 -26 50 0 11 -4 17 -10 14 -5 -3 -7 -20 -4 -38 5 -27 4
-29 -6 -13 -15 22 -6 91 16 124 32 49 107 61 161 26z m419 -18 c40 -40 49 -96
15 -96 -11 0 -23 -12 -31 -30 -15 -36 -37 -50 -79 -50 -30 0 -81 39 -81 62 0
7 -5 6 -15 -2 -13 -11 -15 -7 -15 24 0 79 46 126 123 126 42 0 54 -5 83 -34z
m332 18 c53 -37 48 -111 -9 -134 -40 -17 -76 -5 -99 33 -44 72 39 149 108 101z
m-3398 -39 c0 -8 -10 -16 -22 -16 l-23 -2 23 -4 c12 -2 22 -11 22 -19 0 -11
-16 -14 -70 -14 l-70 0 0 35 0 35 70 0 c56 0 70 -3 70 -15z m566 -16 c-3 -17
-6 -58 -6 -90 l0 -59 -140 0 -140 0 0 90 0 90 146 0 147 0 -7 -31z m254 -2 c0
-18 6 -39 13 -46 10 -11 10 -14 0 -18 -8 -3 -13 -22 -13 -44 l0 -39 -70 0 -70
0 0 90 0 90 70 0 70 0 0 -33z m260 -20 c0 -55 -13 -79 -36 -70 -10 4 -14 -4
-14 -26 0 -30 -1 -31 -45 -31 l-45 0 0 90 0 90 70 0 70 0 0 -53z m473 23 c-30
-27 -33 -35 -33 -90 l0 -60 -70 0 c-62 0 -70 2 -70 19 0 10 -7 21 -15 25 -8 3
-15 1 -15 -3 0 -5 6 -12 13 -14 7 -3 5 -6 -5 -6 -10 -1 -18 4 -18 9 0 6 -5 10
-11 10 -6 0 -9 -9 -6 -20 5 -19 0 -20 -64 -20 l-69 0 0 90 0 90 198 0 197 -1
-32 -29z m-1469 4 c11 -28 6 -44 -13 -44 -20 0 -37 32 -26 50 9 15 32 12 39
-6z m1736 -19 c0 -8 -7 -15 -15 -15 -8 0 -15 7 -15 15 0 8 7 15 15 15 8 0 15
-7 15 -15z m110 -10 c0 -8 -7 -15 -15 -15 -8 0 -15 7 -15 15 0 8 7 15 15 15 8
0 15 -7 15 -15z m-50 -19 c0 -13 -20 -26 -41 -26 -14 0 -11 28 4 33 23 10 37
7 37 -7z m-60 -42 c0 -9 -7 -14 -17 -12 -25 5 -28 28 -4 28 12 0 21 -6 21 -16z
m-2093 -86 c-4 -29 -12 -55 -18 -57 -27 -9 -89 -76 -110 -117 -17 -36 -20 -58
-17 -109 5 -79 38 -133 113 -184 46 -30 55 -33 108 -28 32 3 69 12 82 21 24
16 25 15 51 -25 25 -40 25 -42 8 -53 -74 -43 -199 -45 -286 -4 -203 94 -262
365 -111 515 44 44 131 93 167 93 17 0 18 -5 13 -52z m2443 26 c34 -14 40 -20
34 -38 -11 -38 -28 -48 -58 -36 -15 5 -54 10 -87 10 -97 0 -163 -45 -212 -147
-17 -35 -26 -43 -49 -43 -24 0 -28 4 -28 28 0 30 39 115 67 148 81 94 215 125
333 78z m-2187 -23 c74 -51 119 -116 132 -193 l7 -38 -35 0 c-32 0 -37 4 -47
36 -12 36 -83 116 -128 145 -21 13 -21 17 -10 47 15 39 28 40 81 3z m3395 -77
c41 -29 23 -84 -28 -84 -32 0 -50 17 -50 46 0 20 32 54 50 54 3 0 16 -7 28
-16z m-3000 -81 l3 -83 -56 0 -55 0 0 79 0 80 33 4 c73 9 72 10 75 -80z m372
76 c0 -6 -4 -19 -10 -29 -5 -10 -10 -40 -11 -68 l-2 -50 -45 -6 c-25 -3 -78
-6 -118 -6 l-74 0 0 85 0 85 130 0 c85 0 130 -4 130 -11z m208 5 c12 -4 22
-13 22 -20 0 -8 5 -14 10 -14 6 0 10 -9 10 -20 0 -11 -4 -20 -10 -20 -5 0 -10
-17 -10 -39 0 -38 0 -38 -46 -45 -78 -10 -74 -15 -74 79 l0 85 38 0 c20 0 47
-3 60 -6z m382 -24 c0 -16 -5 -30 -11 -30 -6 0 -9 -6 -6 -13 3 -8 2 -29 -3
-48 l-8 -34 -1 36 c-1 50 -28 48 -33 -2 -3 -34 -1 -39 22 -42 14 -2 -28 -5
-92 -6 l-118 -1 0 79 c0 94 -9 88 143 90 l107 1 0 -30z m240 -9 c0 -23 -5 -30
-29 -34 -28 -6 -28 -8 -24 -52 l6 -45 -42 0 -41 0 0 80 0 80 65 0 c65 0 65 0
65 -29z m1252 -48 c30 -34 31 -61 4 -88 -16 -16 -31 -23 -43 -18 -26 9 -53 44
-53 70 0 47 61 71 92 36z m-1232 -33 c0 -11 -7 -20 -15 -20 -8 0 -15 9 -15 20
0 11 7 20 15 20 8 0 15 -9 15 -20z m1434 4 c8 -20 8 -132 0 -161 -8 -28 -34
-30 -34 -3 0 13 -7 20 -20 20 -17 0 -20 7 -20 43 0 23 5 59 11 80 8 29 15 37
33 37 13 0 27 -7 30 -16z m-3190 -16 c40 -35 43 -78 11 -116 -38 -45 -92 -45
-129 -1 -34 40 -33 74 3 110 36 36 79 38 115 7z m2766 -63 c0 -42 -3 -55 -15
-55 -10 0 -15 11 -15 35 0 19 -4 35 -10 35 -5 0 -10 9 -10 20 0 15 7 20 25 20
24 0 25 -3 25 -55z m-3481 -60 c14 -14 3 -52 -17 -61 -10 -4 -63 -10 -120 -13
l-102 -6 0 27 c0 17 10 34 27 48 25 19 38 21 115 18 48 -1 92 -8 97 -13z
m1384 -22 c-2 -6 -4 -25 -5 -41 -2 -23 -6 -28 -24 -24 -19 3 -21 0 -17 -22 5
-22 2 -25 -13 -20 -15 5 -14 3 4 -10 12 -10 22 -21 22 -27 0 -5 -44 -9 -99 -9
l-99 0 -4 75 c-2 42 -1 80 0 86 6 15 238 7 235 -8z m322 5 c2 -7 0 -38 -4 -68
-5 -30 -9 -49 -10 -41 0 8 -13 1 -30 -18 -27 -29 -34 -31 -95 -31 l-66 0 0 85
0 85 100 0 c72 0 102 -4 105 -12z m235 -72 l0 -83 -60 -2 -60 -2 0 86 0 85 60
0 60 0 0 -84z m250 33 c0 -35 -3 -48 -12 -43 -6 4 -8 3 -5 -4 4 -5 -1 -24 -10
-41 -16 -27 -24 -31 -60 -31 l-43 0 0 78 c0 43 3 82 7 85 3 4 33 7 65 7 l58 0
0 -51z m246 26 c0 -16 -6 -24 -16 -22 -12 1 -16 -12 -18 -60 l-3 -63 -44 0
-45 0 0 85 0 85 64 0 c62 0 64 -1 62 -25z m1028 -31 c9 -24 7 -34 -8 -34 -13
0 -26 20 -26 41 0 15 27 10 34 -7z m436 -5 c0 -5 -9 -18 -20 -29 -11 -11 -20
-27 -20 -35 0 -8 -7 -15 -16 -15 -13 0 -15 7 -10 30 3 17 1 30 -4 30 -6 0 -10
6 -10 14 0 9 13 13 40 13 22 0 40 -4 40 -8z m-90 -34 c0 -8 -4 -15 -10 -15 -5
0 -10 -13 -10 -30 0 -30 -13 -37 -39 -21 -18 11 -6 61 14 61 8 0 15 5 15 10 0
6 7 10 15 10 8 0 15 -7 15 -15z m-240 -20 c0 -8 -7 -15 -15 -15 -8 0 -15 7
-15 15 0 8 7 15 15 15 8 0 15 -7 15 -15z m-1360 -20 c0 -8 -7 -15 -15 -15 -8
0 -15 7 -15 15 0 8 7 15 15 15 8 0 15 -7 15 -15z m1310 0 c0 -8 -7 -15 -15
-15 -8 0 -15 7 -15 15 0 8 7 15 15 15 8 0 15 -7 15 -15z m40 -20 c0 -16 -27
-32 -37 -22 -3 4 -3 13 0 22 8 20 37 20 37 0z m-2260 -190 l0 -85 -29 0 c-15
0 -49 -3 -75 -6 l-46 -7 0 92 0 91 75 0 75 0 0 -85z m319 0 l-2 -85 -98 0 -99
0 0 85 0 85 101 0 100 0 -2 -85z m245 30 c-2 -99 -4 -115 -14 -115 -5 0 -10
20 -10 45 0 25 -4 45 -10 45 -6 0 -7 -19 -4 -45 l5 -45 -46 0 -45 0 0 85 0 86
63 -3 62 -3 -1 -50z m544 40 c2 -2 0 -19 -3 -39 l-7 -36 -172 -2 -171 -3 -9
-37 c-8 -33 -13 -38 -38 -38 l-28 0 0 78 c0 43 2 81 5 83 5 5 418 -1 423 -6z"/>
<path d="M2420 5955 c0 -8 9 -15 20 -15 11 0 20 7 20 15 0 8 -9 15 -20 15 -11
0 -20 -7 -20 -15z"/>
<path d="M2420 5889 c0 -5 11 -9 25 -9 14 0 25 4 25 9 0 5 -11 9 -25 9 -14 0
-25 -4 -25 -9z"/>
<path d="M2440 5846 c0 -2 18 -6 40 -8 22 -2 40 0 40 4 0 5 -18 8 -40 8 -22 0
-40 -2 -40 -4z"/>
<path d="M3000 5710 c0 -15 7 -20 25 -20 28 0 35 20 8 21 -15 0 -15 2 2 9 18
8 17 9 -7 9 -22 1 -28 -4 -28 -19z"/>
<path d="M3552 5683 c-6 -2 -10 -9 -7 -13 7 -11 35 -2 35 11 0 10 -8 10 -28 2z"/>
<path d="M859 5271 c-52 -53 -33 -135 37 -162 38 -14 87 11 108 54 21 45 13
79 -26 112 -40 34 -82 33 -119 -4z"/>
<path d="M5682 5254 c-27 -19 -29 -57 -3 -83 20 -20 52 -19 79 2 18 14 14 55
-8 77 -24 24 -38 25 -68 4z"/>
<path d="M830 4716 c-6 -8 -10 -25 -8 -38 3 -23 4 -23 175 -26 l173 -2 6 25
c12 50 -4 55 -176 55 -125 0 -160 -3 -170 -14z"/>
<path d="M824 4566 c-3 -8 -4 -25 -2 -38 l3 -23 175 0 175 0 3 29 c2 16 -2 32
-10 37 -7 5 -86 9 -176 9 -132 0 -164 -3 -168 -14z"/>
<path d="M5673 4695 c-13 -9 -28 -34 -34 -56 -11 -35 -10 -43 8 -67 58 -79
164 -56 179 40 5 27 1 40 -21 66 -22 27 -34 32 -69 32 -23 0 -51 -7 -63 -15z"/>
<path d="M5207 4579 c-51 -30 -34 -119 23 -119 55 0 79 69 37 108 -26 25 -34
26 -60 11z"/>
<path d="M2210 4299 c-14 -6 -36 -20 -48 -32 -55 -51 -52 11 -52 -1182 l0
-1106 25 -24 24 -25 1100 0 1101 0 17 27 c17 26 18 91 18 1134 l0 1107 -30 44
c-20 27 -44 47 -65 55 -45 15 -2051 17 -2090 2z m2060 -1185 l0 -1064 -1015 0
-1015 0 0 1065 0 1065 953 2 c523 2 980 1 1015 0 l62 -4 0 -1064z"/>
<path d="M2558 3759 l-38 -19 0 -334 c0 -183 3 -335 6 -338 3 -3 42 11 87 31
158 73 172 76 216 56 37 -16 40 -16 65 0 32 21 59 15 203 -46 51 -21 94 -39
97 -39 4 0 6 151 6 335 l0 335 -25 16 c-13 9 -51 18 -85 21 -71 7 -134 -13
-186 -59 l-33 -30 -44 32 c-83 59 -199 77 -269 39z m182 -107 l75 -37 3 -166
2 -167 -42 -4 c-24 -3 -47 -1 -53 5 -7 7 -5 8 6 4 9 -3 16 0 16 9 0 7 -3 12
-6 10 -3 -2 -14 -6 -25 -10 -13 -4 -15 -10 -8 -19 12 -15 -35 -51 -80 -62
l-28 -7 0 241 0 241 33 0 c17 0 66 -17 107 -38z m351 -197 c-1 -126 -3 -230
-5 -232 -1 -1 -35 11 -75 27 -40 17 -82 30 -92 30 -14 0 -19 7 -19 28 -1 15
-3 88 -6 163 l-6 137 48 28 c45 26 129 55 148 50 4 -1 7 -105 7 -231z"/>
<path d="M3330 3720 l0 -40 350 0 350 0 0 40 0 40 -350 0 -350 0 0 -40z"/>
<path d="M3330 3525 l0 -35 350 0 350 0 0 35 0 35 -350 0 -350 0 0 -35z"/>
<path d="M3332 3333 l3 -38 345 0 345 0 3 38 3 37 -351 0 -351 0 3 -37z"/>
<path d="M3340 3140 l0 -40 343 2 342 3 3 38 3 37 -345 0 -346 0 0 -40z"/>
<path d="M2460 2870 l0 -40 786 0 785 0 -3 38 -3 37 -782 3 -783 2 0 -40z"/>
<path d="M2460 2605 l0 -40 753 -4 c413 -2 767 -1 785 3 29 7 32 11 32 46 l0
39 -785 -2 -785 -2 0 -40z"/>
<path d="M2460 2350 l0 -40 785 0 785 0 0 40 0 40 -785 0 -785 0 0 -40z"/>
<path d="M3192 1800 c-97 -59 -96 -202 2 -250 54 -26 82 -25 129 3 73 45 95
113 59 187 -36 73 -123 101 -190 60z"/>
<path d="M2303 1748 c-46 -22 -49 -103 -4 -127 56 -31 121 4 121 64 0 57 -61
90 -117 63z"/>
<path d="M2525 1735 c-34 -33 -33 -77 1 -104 46 -36 99 -26 119 23 33 79 -60
142 -120 81z"/>
<path d="M2915 1735 c-49 -48 -18 -125 50 -125 39 0 75 36 75 74 0 34 -41 76
-75 76 -14 0 -37 -11 -50 -25z"/>
<path d="M3505 1735 c-49 -49 -16 -125 55 -125 44 0 80 35 80 77 0 34 -42 73
-80 73 -19 0 -40 -9 -55 -25z"/>
<path d="M3765 1735 c-58 -57 -15 -134 70 -125 58 6 77 91 29 129 -35 28 -69
26 -99 -4z"/>
<path d="M4015 1735 c-30 -30 -32 -64 -4 -99 28 -35 80 -36 114 -1 32 31 32
65 0 99 -32 34 -77 35 -110 1z"/>
<path d="M525 4200 c-15 -16 -16 -25 -7 -44 14 -31 65 -40 81 -14 36 58 -29
108 -74 58z"/>
<path d="M6021 4163 c-24 -30 -20 -58 11 -85 43 -38 108 -10 108 46 0 65 -79
91 -119 39z"/>
<path d="M6122 2918 c-7 -7 -12 -21 -12 -33 0 -12 5 -26 12 -33 7 -7 21 -12
33 -12 12 0 26 5 33 12 7 7 12 21 12 33 0 12 -5 26 -12 33 -7 7 -21 12 -33 12
-12 0 -26 -5 -33 -12z"/>
<path d="M6052 2304 c-55 -23 -53 -103 4 -124 38 -15 53 -12 79 15 62 61 -1
144 -83 109z"/>
<path d="M5287 1509 c7 -7 15 -10 18 -7 3 3 -2 9 -12 12 -14 6 -15 5 -6 -5z"/>
<path d="M522 1689 c-31 -12 -46 -55 -32 -90 22 -52 102 -56 129 -8 34 60 -29
124 -97 98z"/>
<path d="M1407 1196 c-51 -47 -43 -120 17 -157 45 -27 73 -24 112 15 56 56 44
115 -33 155 -34 18 -68 13 -96 -13z"/>
</g>
</svg>
